<?xml version="1.0" encoding="UTF-8" standalone="no"?>
<!-- Created with Inkscape (http://www.inkscape.org/) -->

<svg
   version="1.1"
   id="svg1"
   width="28.1113"
   height="13.525767"
   viewBox="0 0 28.1113 13.525768"
   sodipodi:docname="logo-dark.svg"
   inkscape:version="1.4.2 (f4327f4, 2025-05-13)"
   inkscape:export-filename="logo.svg"
   inkscape:export-xdpi="96"
   inkscape:export-ydpi="96"
   xmlns:inkscape="http://www.inkscape.org/namespaces/inkscape"
   xmlns:sodipodi="http://sodipodi.sourceforge.net/DTD/sodipodi-0.dtd"
   xmlns="http://www.w3.org/2000/svg"
   xmlns:svg="http://www.w3.org/2000/svg">
  <defs
     id="defs1" />
  <sodipodi:namedview
     id="namedview1"
     pagecolor="#ffffff"
     bordercolor="#666666"
     borderopacity="1.0"
     inkscape:showpageshadow="2"
     inkscape:pageopacity="0.0"
     inkscape:pagecheckerboard="0"
     inkscape:deskcolor="#d1d1d1"
     showgrid="false"
     inkscape:zoom="21.17378"
     inkscape:cx="19.906696"
     inkscape:cy="12.964147"
     inkscape:window-width="2560"
     inkscape:window-height="1377"
     inkscape:window-x="-8"
     inkscape:window-y="-8"
     inkscape:window-maximized="1"
     inkscape:current-layer="g1">
    <inkscape:page
       x="0"
       y="0"
       width="28.1113"
       height="13.525768"
       id="page2"
       margin="0"
       bleed="0" />
  </sodipodi:namedview>
  <g
     inkscape:groupmode="layer"
     inkscape:label="Image"
     id="g1"
     transform="translate(-4.9012289,-0.62519817)">
    <rect
       style="fill:#fff11a;fill-opacity:0.882353;stroke-width:0.911097"
       id="rect1"
       width="8.076025"
       height="0.75565153"
       x="24.936502"
       y="10.673578" />
    <rect
       style="fill:#fff11a;fill-opacity:0.882353;stroke-width:0.905753"
       id="rect1-8"
       width="7.9815693"
       height="0.75565153"
       x="0.62519819"
       y="-22.629374"
       transform="rotate(90)" />
    <rect
       style="fill:#fff11a;fill-opacity:0.882353;stroke-width:0.905753"
       id="rect1-8-2"
       width="7.9815693"
       height="0.75565153"
       x="-25.948959"
       y="-19.685444"
       transform="rotate(155)" />
    <rect
       style="fill:#fff11a;fill-opacity:0.882353;stroke-width:0.905753"
       id="rect1-8-1"
       width="7.9815693"
       height="0.75565153"
       x="-12.709252"
       y="-25.18786"
       transform="rotate(122)" />
    <text
       xml:space="preserve"
       style="font-weight:500;font-size:10.6667px;line-height:1.25;font-family:LondonMM;-inkscape-font-specification:'LondonMM Medium'"
       x="4.4105659"
       y="14.044298"
       id="text2"><tspan
         sodipodi:role="line"
         id="tspan2"
         x="4.4105659"
         y="14.044298"
         style="font-style:normal;font-variant:normal;font-weight:normal;font-stretch:normal;font-size:10.6667px;font-family:LondonMM;-inkscape-font-specification:LondonMM">Sann</tspan></text>
    <path
       style="font-size:10.6667px;line-height:1.25;font-family:LondonMM;-inkscape-font-specification:LondonMM;fill:#ffffff"
       d="m 9.2212477,12.017625 q 0,-0.608002 -0.2773342,-0.97067 Q 8.677246,10.684288 8.2612447,10.470954 7.8559101,10.246953 7.3652419,10.108286 6.8852403,9.9696186 6.469239,9.7989514 6.0639044,9.6176175 5.7865702,9.35095 5.509236,9.0736158 5.509236,8.5829476 q 0,-0.2986676 0.1173337,-0.5440017 0.1173337,-0.2560008 0.320001,-0.4373347 0.213334,-0.1920007 0.4906682,-0.2986677 0.2773342,-0.106667 0.6080019,-0.106667 0.3306678,0 0.6400021,0.096 0.3093343,0.085334 0.7680024,0.3306678 L 8.677246,7.1322763 Q 7.8345767,6.6736082 6.9919073,6.6736082 q -0.4373347,0 -0.8213359,0.1493338 Q 5.7972369,6.9722758 5.509236,7.2389433 5.2319018,7.4949441 5.0612346,7.8469453 4.9012341,8.1989464 4.9012341,8.604281 q 0,0.4480014 0.1600005,0.7573357 0.1600005,0.3093343 0.4160013,0.5226683 0.2666675,0.202667 0.5973352,0.341334 0.3306677,0.138668 0.6826688,0.266668 0.3520011,0.117334 0.6826689,0.234667 0.3306677,0.117334 0.5866685,0.288001 0.2666675,0.170667 0.426668,0.416002 0.1600005,0.245334 0.1600005,0.618668 0,0.448002 -0.1600005,0.746669 -0.1493338,0.298668 -0.4053346,0.480002 -0.2560008,0.181334 -0.5760018,0.266667 -0.3200011,0.07467 -0.6400021,0.07467 -0.3840012,0 -0.746669,-0.138667 Q 5.72257,13.340296 5.2105684,12.988295 l -0.213334,0.512001 q 0.960003,0.640002 1.8666725,0.640002 0.4906683,0 0.9173363,-0.128 0.426668,-0.128 0.746669,-0.384001 0.320001,-0.266668 0.5013349,-0.661336 0.1920006,-0.405334 0.1920006,-0.949336 z m 4.2773413,2.13334 v -3.744012 q 0,-0.373334 -0.149334,-0.6186683 Q 13.199921,9.5429506 12.975921,9.4042835 12.75192,9.2656164 12.485252,9.2122829 q -0.256,-0.053334 -0.480001,-0.053334 -0.394668,0 -0.842669,0.074667 -0.448002,0.074667 -0.896003,0.3520011 l 0.202667,0.4053346 q 0.341334,-0.2240007 0.725336,-0.3093343 0.384001,-0.096 0.725335,-0.096 1.06667,0 1.06667,0.9813367 v 0.544002 q -0.597335,-0.01067 -1.13067,0.05333 -0.522668,0.05333 -0.928003,0.234667 -0.394668,0.181334 -0.629335,0.512002 -0.234668,0.320001 -0.234668,0.832003 0,0.256001 0.096,0.501335 0.106667,0.245334 0.288001,0.448001 0.181334,0.202667 0.416001,0.330668 0.234667,0.117333 0.512002,0.117333 0.192,0 0.426668,-0.02133 0.234667,-0.01067 0.458668,-0.04267 0.224,-0.02133 0.416001,-0.04267 0.192001,-0.032 0.309334,-0.064 z m -0.512002,-0.682669 q -0.096,0.05333 -0.266667,0.106667 -0.170667,0.04267 -0.373335,0.07467 -0.202667,0.032 -0.416001,0.05333 -0.213334,0.01067 -0.384001,0.01067 -0.405335,0 -0.682669,-0.277334 -0.266668,-0.277334 -0.266668,-0.693335 0,-0.394668 0.192001,-0.640002 0.202667,-0.245334 0.533335,-0.373335 0.330668,-0.138667 0.757336,-0.181334 0.437334,-0.04267 0.906669,-0.02133 z m 5.706695,0.576002 v -2.922676 q 0,-0.970669 -0.512001,-1.4613377 -0.501335,-0.4906682 -1.333338,-0.4906682 -0.448001,0 -0.885336,0.085334 -0.426668,0.085334 -0.757336,0.2453341 v 0.021333 L 14.69327,9.2549497 v 4.7893483 h 0.512001 v -4.021346 q 0.277335,-0.1813338 0.661336,-0.2773341 0.384001,-0.106667 0.906669,-0.106667 0.640002,0 1.024003,0.4373351 0.384002,0.426668 0.384002,1.237337 v 2.730675 z m 5.301347,0 v -2.922676 q 0,-0.970669 -0.512002,-1.4613377 -0.501334,-0.4906682 -1.333337,-0.4906682 -0.448001,0 -0.885336,0.085334 -0.426668,0.085334 -0.757336,0.2453341 v 0.021333 L 19.994616,9.2549497 v 4.7893483 h 0.512002 v -4.021346 q 0.277334,-0.1813338 0.661336,-0.2773341 0.384001,-0.106667 0.906669,-0.106667 0.640002,0 1.024003,0.4373351 0.384001,0.426668 0.384001,1.237337 v 2.730675 z"
       id="text1"
       aria-label="Sann" />
  </g>
</svg>
